<svg width="88" height="50" viewBox="0 0 88 50" fill="none" xmlns="http://www.w3.org/2000/svg">
<path d="M11.7535 12.7679C11.7955 12.7901 11.8591 12.8021 11.9441 12.8039C12.178 12.809 12.2983 12.6574 12.305 12.3491L12.413 7.38961C12.4267 6.76236 12.5746 6.31885 12.8568 6.05909C13.1496 5.79955 13.6256 5.67696 14.2848 5.69131C14.9545 5.70589 15.4246 5.85439 15.695 6.13683C15.9654 6.41926 16.0933 6.89536 16.0787 7.56513C16.0732 7.82029 16.049 8.19735 16.0063 8.69633C15.9637 9.18468 15.9144 9.74201 15.8582 10.3683C15.8126 10.9949 15.766 11.6693 15.7184 12.3915C15.671 13.1031 15.6397 13.8098 15.6244 14.5114C15.6008 15.5958 15.6548 16.533 15.7865 17.323C15.9183 18.1129 16.1167 18.7714 16.3817 19.2983C16.647 19.8146 16.9683 20.2045 17.3454 20.468C17.7228 20.7209 18.1508 20.8525 18.6292 20.8629C18.8949 20.8687 19.1348 20.842 19.3489 20.7829C19.5737 20.7133 19.835 20.6818 20.1327 20.6883C20.3453 20.6929 20.5183 20.8083 20.6517 21.0346C20.7959 21.2505 20.8646 21.5126 20.8579 21.8209C20.8519 22.0973 20.7612 22.3559 20.5857 22.5967C20.4209 22.8378 20.1931 23.0455 19.9021 23.22C19.6217 23.3947 19.2944 23.5312 18.9199 23.6294C18.5458 23.717 18.1567 23.7564 17.7527 23.7476C16.8809 23.7286 16.0894 23.4455 15.378 22.8982C14.6669 22.3402 14.1426 21.5045 13.8052 20.391C13.777 20.2202 13.7257 20.134 13.6513 20.1323C13.5662 20.1305 13.4953 20.214 13.4384 20.383C13.1345 21.1528 12.7418 21.8463 12.2604 22.4633C11.7898 23.07 11.2413 23.5899 10.615 24.023C9.99953 24.4457 9.32247 24.766 8.58381 24.9839C7.85579 25.202 7.08779 25.3023 6.27981 25.2847C5.4293 25.2662 4.65102 25.1057 3.94497 24.8031C3.24932 24.5114 2.65178 24.1102 2.15236 23.5994C1.65316 23.078 1.26745 22.474 0.995215 21.7873C0.723213 21.09 0.595891 20.3427 0.613248 19.5454C0.635466 18.5248 0.869038 17.5673 1.31396 16.6729C1.75889 15.7784 2.35011 15.0042 3.08762 14.3502C3.83599 13.6858 4.69819 13.1674 5.6742 12.7951C6.65021 12.4228 7.68574 12.2486 8.78076 12.2724C9.22728 12.2821 9.69956 12.3296 10.1976 12.4149C10.6959 12.4896 11.2145 12.6072 11.7535 12.7679ZM6.96423 22.4278C7.57022 22.441 8.10999 22.3198 8.58356 22.0642C9.06775 21.8088 9.49498 21.4831 9.86524 21.087C10.2464 20.6804 10.5698 20.2354 10.8356 19.752C11.1016 19.2578 11.3195 18.7786 11.4891 18.3143C11.6588 17.85 11.7849 17.4326 11.8674 17.0621C11.9499 16.6917 11.9929 16.4267 11.9964 16.2672C11.9989 16.1503 11.9692 16.0486 11.9073 15.9621C11.8456 15.8651 11.7515 15.7886 11.6251 15.7326C11.3397 15.652 11.0434 15.5817 10.7363 15.5218C10.4293 15.4513 10.1275 15.3916 9.83074 15.3426C9.53399 15.2936 9.24764 15.2554 8.97169 15.2281C8.70637 15.2011 8.46208 15.1851 8.23882 15.1803C7.60094 15.1664 7.01945 15.2495 6.49435 15.4295C5.96925 15.6095 5.51683 15.8709 5.1371 16.2136C4.768 16.5566 4.47712 16.9704 4.26448 17.455C4.05207 17.9291 3.93962 18.4531 3.92712 19.0272C3.91601 19.5375 3.98036 20.0016 4.12018 20.4194C4.27085 20.8269 4.47596 21.1771 4.73549 21.4699C5.00566 21.763 5.33037 21.9934 5.70962 22.1612C6.08888 22.329 6.50708 22.4179 6.96423 22.4278Z" fill="#008FFF"/>
<path d="M27.6821 25.1695C26.0491 25.134 24.6419 24.733 23.4605 23.9667C22.3009 23.2008 21.4092 22.1358 20.7854 20.7716C20.1838 19.3862 19.903 17.779 19.9428 15.9501C19.9826 14.1212 20.3329 12.5386 20.9937 11.2024C21.6763 9.86672 22.6026 8.84129 23.7727 8.12613C24.965 7.38967 26.3559 7.03874 27.9453 7.07334C29.4477 7.10605 30.768 7.49421 31.9063 8.23784C33.0451 8.9597 33.9155 10.0025 34.5176 11.3661C35.1414 12.7303 35.4322 14.3812 35.39 16.319C35.3802 16.77 35.0067 17.1276 34.5557 17.1177L22.7983 16.8618C22.8669 18.7149 23.3265 20.119 24.177 21.0742C25.0493 22.0299 26.2366 22.5241 27.739 22.5568C28.8712 22.5814 29.8022 22.3403 30.5321 21.8334C31.0297 21.4839 31.4287 21.0608 31.7293 20.5641C32.0049 20.1088 32.4865 19.7811 33.0161 19.8339L33.6313 19.8953C34.3606 19.968 34.8418 20.7005 34.4943 21.3458C33.9795 22.3016 33.2653 23.12 32.3517 23.8008C31.0676 24.7531 29.511 25.2093 27.6821 25.1695ZM22.8509 14.445L32.4202 14.6533C32.326 12.974 31.8629 11.7331 31.0308 10.9308C30.2205 10.129 29.1731 9.71406 27.8885 9.6861C26.5603 9.65719 25.4518 10.0469 24.5628 10.8553C23.6962 11.6425 23.1255 12.839 22.8509 14.445Z" fill="#00AC3A"/>
<path d="M43.2535 25.5085C41.7076 25.4748 40.3958 25.1958 39.3181 24.6713C38.2621 24.1473 37.4388 23.4432 36.8481 22.559C36.4788 21.9707 36.2163 21.3342 36.0605 20.6495C35.9186 20.0252 36.4231 19.4755 37.0626 19.4458L37.7359 19.4146C38.3283 19.3872 38.8263 19.8228 39.0348 20.3779C39.259 20.9751 39.6022 21.4858 40.0644 21.9102C40.7696 22.5355 41.8516 22.864 43.3104 22.8957C44.4861 22.9213 45.4264 22.7567 46.1312 22.4017C46.8582 22.0254 47.231 21.4127 47.2495 20.5636C47.2594 20.1063 47.1589 19.7229 46.9478 19.4134C46.7367 19.1038 46.3178 18.8333 45.6911 18.6018C45.0649 18.3486 44.1336 18.0996 42.8973 17.8548C41.2492 17.514 39.9509 17.1154 39.0024 16.6591C38.0761 16.1815 37.4132 15.6116 37.0137 14.9494C36.6365 14.2659 36.4579 13.4669 36.4778 12.5524C36.5114 11.0065 37.105 9.75604 38.2585 8.8009C39.4125 7.82399 41.0346 7.35829 43.1248 7.40379C44.5401 7.4346 45.721 7.72171 46.6677 8.26511C47.6365 8.78722 48.3839 9.47877 48.9097 10.3398C49.2242 10.8215 49.4735 11.3305 49.6577 11.8668C49.8798 12.5133 49.366 13.1349 48.6832 13.1665L48.0791 13.1945C47.5069 13.221 47.0211 12.8123 46.7851 12.2903C46.6782 12.0538 46.5493 11.832 46.3985 11.6248C46.0605 11.1382 45.6114 10.7581 45.0509 10.4845C44.491 10.1891 43.8191 10.0329 43.0353 10.0158C41.7942 9.98882 40.8746 10.2084 40.2763 10.6746C39.678 11.1408 39.3708 11.7441 39.3546 12.4844C39.3423 13.0505 39.4628 13.5214 39.716 13.8972C39.9915 14.2518 40.4314 14.5554 41.0358 14.8082C41.6407 15.0392 42.453 15.2529 43.4725 15.4494C45.2295 15.7926 46.5931 16.1926 47.5634 16.6494C48.5337 17.1062 49.2079 17.6546 49.5861 18.2945C49.9643 18.9344 50.1434 19.7117 50.1235 20.6261C50.1003 21.693 49.7756 22.6008 49.1493 23.3496C48.5453 24.0771 47.7274 24.6256 46.6955 24.9953C45.6855 25.3654 44.5381 25.5365 43.2535 25.5085Z" fill="#FE5722"/>
<path d="M63.4746 30.8499C62.2335 30.8229 61.1167 30.5917 60.1241 30.1562C59.1316 29.7207 58.3061 29.1146 57.6478 28.3378C57.2858 27.9108 56.9905 27.4491 56.7618 26.9526C56.4636 26.3054 56.9823 25.6325 57.6941 25.5995L58.314 25.5708C58.8418 25.5463 59.3005 25.896 59.5618 26.3552C59.8088 26.7891 60.1357 27.1552 60.5424 27.4533C61.2069 27.947 62.2033 28.2083 63.5314 28.2372C65.0991 28.2713 66.3035 27.9817 67.1446 27.3683C68.0075 26.7553 68.4527 25.8175 68.4802 24.5546L68.5413 21.7459C68.1077 22.6514 67.4278 23.3663 66.5015 23.8907C65.5751 24.4151 64.5459 24.665 63.4137 24.6404C61.9549 24.6086 60.6563 24.2209 59.518 23.4773C58.4015 22.7341 57.5303 21.724 56.9046 20.447C56.3007 19.1704 56.0165 17.7156 56.0521 16.0827C56.0881 14.4279 56.4353 12.9869 57.0938 11.7596C57.7527 10.5105 58.6452 9.53878 59.7712 8.84445C60.9191 8.15058 62.2115 7.81929 63.6485 7.85058C64.8678 7.87712 65.9503 8.18387 66.896 8.77082C67.8634 9.35825 68.5327 10.1352 68.9037 11.1018L68.9384 9.51011C68.9522 8.87403 69.4791 8.36961 70.1152 8.38345L70.4245 8.39019C71.0606 8.40403 71.565 8.9309 71.5511 9.56699L71.225 24.549C71.1956 25.8989 70.8657 27.0463 70.2352 27.991C69.6042 28.9575 68.7171 29.6789 67.5741 30.155C66.4305 30.6529 65.064 30.8845 63.4746 30.8499ZM63.6012 22.0305C65.0818 22.0627 66.2795 21.5769 67.1945 20.573C68.1099 19.5473 68.598 18.142 68.6586 16.3571C68.7065 15.1601 68.5328 14.1325 68.1376 13.2743C67.7646 12.3949 67.2021 11.7182 66.45 11.2444C65.7202 10.7493 64.8544 10.4908 63.8529 10.469C62.3288 10.4358 61.1308 10.9326 60.2589 11.9592C59.4092 12.9645 58.965 14.3598 58.9261 16.1452C58.8872 17.9306 59.281 19.3551 60.1074 20.4187C60.956 21.461 62.1206 21.9982 63.6012 22.0305Z" fill="#C472FC"/>
<path d="M74.3025 25.7923C73.6664 25.7785 73.162 25.2516 73.1759 24.6155L73.5025 9.60947C73.5164 8.97339 74.0433 8.46896 74.6793 8.48281L74.916 8.48796C75.5421 8.50159 76.0426 9.01291 76.0429 9.63917L76.0444 12.9236L75.7242 12.6226C75.9642 11.604 76.3635 10.774 76.922 10.1327C77.481 9.46959 78.1451 8.98303 78.9143 8.67303C79.7052 8.3635 80.547 8.21845 81.4397 8.23788C82.7679 8.26679 83.8501 8.58443 84.6865 9.19078C85.5446 9.79761 86.1696 10.6063 86.5615 11.6169C86.9756 12.6061 87.1694 13.7104 87.1429 14.9297L86.9255 24.9148C86.9116 25.5509 86.3848 26.0553 85.7487 26.0415L85.3088 26.0319C84.6727 26.0181 84.1683 25.4912 84.1821 24.8551L84.3824 15.6538C84.4056 14.5869 84.2944 13.6914 84.0488 12.9672C83.8254 12.2217 83.4456 11.658 82.9093 11.276C82.3735 10.8722 81.6702 10.6608 80.7992 10.6419C79.4711 10.613 78.3623 11.0136 77.4729 11.8438C76.6058 12.6527 76.1546 13.8627 76.1196 15.4739L75.9193 24.6752C75.9054 25.3113 75.3785 25.8157 74.7425 25.8019L74.3025 25.7923Z" fill="#A4BC07"/>
<g opacity="0.8">
<path d="M15.1912 28.07C15.2035 27.5065 15.3715 27.1167 15.6953 26.9003C16.0193 26.6734 16.5481 26.5679 17.2817 26.5839C17.5475 26.5897 17.7702 26.6211 17.9497 26.6782C18.1402 26.7249 18.2978 26.8134 18.4226 26.9438C18.558 27.0743 18.6606 27.2468 18.7304 27.461C18.8111 27.6648 18.8745 27.9268 18.9207 28.2469C19.0268 29.2384 19.1428 30.262 19.2687 31.3178C19.4052 32.3737 19.547 33.4351 19.694 34.502C19.7473 34.9818 19.992 35.2264 20.4278 35.2359C20.5448 35.2385 20.7364 35.232 21.0026 35.2165C21.2797 35.1906 21.6047 35.1658 21.9775 35.142C22.3505 35.1076 22.7501 35.0737 23.1763 35.0405C23.6131 35.0074 24.0445 34.9796 24.4704 34.957C24.9072 34.9239 25.3172 34.9009 25.7004 34.888C26.0945 34.8647 26.4403 34.8563 26.738 34.8627C26.9719 34.8678 27.1569 34.9197 27.293 35.0184C27.4294 35.1065 27.5332 35.2257 27.6043 35.3762C27.6864 35.5162 27.7361 35.6769 27.7534 35.8581C27.7816 36.0289 27.7937 36.2046 27.7898 36.3854C27.7863 36.5448 27.7508 36.7089 27.6833 36.8776C27.6265 37.0466 27.5434 37.199 27.4341 37.3349C27.3356 37.4604 27.211 37.564 27.0603 37.6458C26.9096 37.7277 26.7386 37.7665 26.5473 37.7623C25.6223 37.7422 24.6861 37.7537 23.7385 37.7969C22.8018 37.8297 21.8646 37.8837 20.927 37.959C20.4472 38.0124 20.2028 38.2464 20.1937 38.661C20.193 38.6929 20.1974 38.7356 20.2069 38.789C20.2166 38.8317 20.2211 38.869 20.2204 38.9009C20.3279 39.8286 20.4259 40.6976 20.5147 41.5079C20.614 42.3185 20.694 43.0435 20.7545 43.683C20.8259 44.3121 20.8782 44.8397 20.9115 45.2659C20.9556 45.6817 20.9762 45.9587 20.9732 46.0969C20.9648 46.4796 20.9207 46.7977 20.8407 47.0513C20.7605 47.3154 20.6336 47.5254 20.4601 47.6812C20.2862 47.8476 20.0551 47.9595 19.7667 48.0171C19.4887 48.0855 19.137 48.115 18.7118 48.1058C18.3078 48.097 18.0122 47.9948 17.825 47.7993C17.6378 47.6038 17.5378 47.3091 17.5251 46.9153C17.4887 45.6594 17.4151 44.3974 17.3044 43.1292C17.194 41.8505 17.0622 40.5766 16.909 39.3075C16.8232 38.8483 16.589 38.6145 16.2063 38.6061C16.1744 38.6055 16.1371 38.61 16.0943 38.6197C16.0516 38.6294 16.0142 38.6339 15.9823 38.6332C15.32 38.7677 14.6948 38.903 14.1068 39.0391C13.5189 39.1752 12.9679 39.3227 12.4539 39.4817C12.1647 39.5712 11.9081 39.6347 11.6839 39.6724C11.4599 39.6994 11.2576 39.711 11.0769 39.707C10.8323 39.7017 10.6539 39.5915 10.5416 39.3763C10.4295 39.1505 10.3771 38.8728 10.3842 38.5432C10.3868 38.4263 10.4003 38.2936 10.4248 38.1452C10.4496 37.9862 10.4954 37.833 10.5625 37.6856C10.6191 37.5272 10.7073 37.3856 10.827 37.2605C10.9363 37.1246 11.0876 37.0163 11.2808 36.9354C11.7312 36.7644 12.3306 36.5913 13.079 36.4161C13.8276 36.2303 14.6715 36.0626 15.6108 35.9128C15.8246 35.8643 15.9912 35.7828 16.1107 35.6684C16.241 35.5436 16.3089 35.359 16.3142 35.1144C16.3154 35.0613 16.3165 35.0081 16.3177 34.955C16.3191 34.8912 16.3098 34.8272 16.29 34.7629C16.1411 33.7811 15.9957 32.8898 15.8536 32.089C15.7223 31.2778 15.6045 30.5839 15.5 30.0072C15.4062 29.4308 15.331 28.9771 15.2744 28.6462C15.2178 28.3152 15.19 28.1232 15.1912 28.07Z" fill="#FF4D8C"/>
<path d="M31.2834 47.2399C29.498 47.2011 28.0809 46.7563 27.032 45.9057C26.0049 45.0556 25.5075 43.8903 25.5397 42.4097C25.572 40.9291 26.0328 39.7738 26.9222 38.9436C27.8116 38.1134 29.2072 37.5447 31.109 37.2376L37.2739 36.2282C37.3057 34.7694 36.981 33.6732 36.2999 32.9395C35.6406 32.2063 34.6251 31.8248 33.2534 31.7949C32.0559 31.7688 31.1028 32.0204 30.3942 32.5495C29.9177 32.8909 29.5375 33.3429 29.2535 33.9055C29.0019 34.4038 28.5031 34.7637 27.9478 34.7079L27.297 34.6424C26.6101 34.5733 26.1288 33.9132 26.3938 33.2757C26.8356 32.2132 27.5188 31.3253 28.4432 30.6119C29.7283 29.6161 31.3507 29.1395 33.3103 29.1821C35.5311 29.2305 37.2156 29.8989 38.3639 31.1873C39.5126 32.454 40.063 34.1868 40.0152 36.3859L39.8595 43.5383C39.8509 43.9302 39.9101 44.2147 40.0369 44.3917C40.186 44.5474 40.4239 44.6289 40.7505 44.636C41.1292 44.6442 41.4296 44.958 41.4214 45.3367L41.393 46.641C41.3875 46.8918 41.2092 47.0966 40.9584 47.0911C40.762 47.1086 40.5549 47.115 40.3372 47.1103C39.5533 47.0932 38.9137 46.9595 38.4181 46.7091C37.9448 46.4374 37.6049 46.0379 37.3986 45.5106C37.1927 44.9615 37.0992 44.2515 37.1182 43.3806L37.4434 43.453C37.2748 44.19 36.89 44.8569 36.2889 45.4537C35.6882 46.0288 34.9486 46.4811 34.0701 46.8105C33.1921 47.1181 32.2632 47.2613 31.2834 47.2399ZM31.5973 44.8288C32.7513 44.8539 33.7358 44.6575 34.5509 44.2396C35.3882 43.8004 36.0329 43.2045 36.4849 42.4519C36.9374 41.6776 37.1741 40.8114 37.195 39.8534L37.222 38.6123L31.5818 39.5351C30.4013 39.7273 29.5775 40.047 29.1103 40.4943C28.6654 40.9202 28.4351 41.4925 28.4195 42.211C28.4019 43.0166 28.6712 43.6542 29.2274 44.1237C29.8058 44.572 30.5957 44.807 31.5973 44.8288Z" fill="#FCAD03"/>
<path d="M41.5486 28.8991C41.5606 28.3462 41.7286 27.9563 42.0527 27.7294C42.3767 27.5024 42.9055 27.397 43.6391 27.4129C43.8942 27.4185 44.1169 27.4499 44.3071 27.5072C44.4973 27.5646 44.6548 27.6584 44.7796 27.7888C44.9046 27.9085 45.0021 28.0755 45.0718 28.2897C45.1525 28.4936 45.2159 28.7555 45.2621 29.0756C45.3798 30.0248 45.4963 31.0219 45.6119 32.0667C45.7382 33.1012 45.854 34.1355 45.9591 35.1695C46.0751 36.1931 46.1809 37.1952 46.2766 38.1758C46.3725 39.1458 46.4538 40.0517 46.5206 40.8934C46.5982 41.7248 46.6512 42.4651 46.6796 43.1146C46.7189 43.7536 46.7345 44.2592 46.7264 44.6313C46.718 45.014 46.6738 45.3375 46.5936 45.6016C46.524 45.866 46.4024 46.0761 46.2288 46.2319C46.0659 46.3879 45.8507 46.5002 45.5833 46.5688C45.3268 46.627 45.0072 46.652 44.6244 46.6437C44.2523 46.6356 43.9567 46.5334 43.7376 46.3372C43.5292 46.1412 43.4292 45.8465 43.4378 45.4531C43.4466 45.0492 43.4264 44.5116 43.3772 43.8404C43.3282 43.1586 43.2596 42.4019 43.1713 41.5704C43.0831 40.7388 42.98 39.8538 42.8622 38.9152C42.755 37.9769 42.6369 37.0489 42.508 36.1314C42.3897 35.2141 42.2705 34.334 42.1506 33.4911C42.0416 32.6378 41.9409 31.8858 41.8487 31.235C41.7568 30.5735 41.6834 30.0348 41.6286 29.6188C41.5741 29.1921 41.5474 28.9522 41.5486 28.8991Z" fill="#42659C"/>
<path d="M55.9571 47.7771C54.3241 47.7415 52.9169 47.3406 51.7355 46.5742C50.5759 45.8083 49.6842 44.7433 49.0604 43.3792C48.4589 41.9937 48.178 40.3865 48.2178 38.5576C48.2576 36.7287 48.6079 35.1461 49.2687 33.81C49.9513 32.4743 50.8776 31.4488 52.0477 30.7337C53.24 29.9972 54.6309 29.6463 56.2203 29.6809C57.7227 29.7136 59.043 30.1017 60.1813 30.8454C61.3201 31.5672 62.1905 32.61 62.7926 33.9737C63.4164 35.3378 63.7072 36.9888 63.665 38.9266C63.6552 39.3775 63.2817 39.7351 62.8307 39.7253L51.0733 39.4693C51.1419 41.3224 51.6015 42.7265 52.452 43.6817C53.3243 44.6374 54.5116 45.1316 56.014 45.1643C57.1462 45.1889 58.0772 44.9478 58.8071 44.4409C59.3047 44.0915 59.7037 43.6684 60.0043 43.1716C60.2799 42.7163 60.7615 42.3887 61.2911 42.4415L61.9064 42.5028C62.6356 42.5755 63.1168 43.308 62.7693 43.9533C62.2545 44.9091 61.5403 45.7275 60.6267 46.4083C59.3426 47.3606 57.786 47.8169 55.9571 47.7771ZM51.126 37.0525L60.6952 37.2608C60.601 35.5815 60.1379 34.3406 59.3058 33.5383C58.4955 32.7365 57.4481 32.3216 56.1635 32.2936C54.8353 32.2647 53.7268 32.6545 52.8378 33.4629C51.9712 34.25 51.4005 35.4465 51.126 37.0525Z" fill="#009E85"/>
<path d="M71.5285 48.116C69.9826 48.0824 68.6708 47.8033 67.5931 47.2788C66.5371 46.7548 65.7138 46.0507 65.1231 45.1665C64.7538 44.5783 64.4913 43.9418 64.3355 43.257C64.1936 42.6328 64.6981 42.083 65.3376 42.0534L66.0109 42.0222C66.6033 41.9947 67.1013 42.4303 67.3098 42.9855C67.534 43.5826 67.8772 44.0934 68.3394 44.5177C69.0446 45.143 70.1266 45.4715 71.5854 45.5033C72.7611 45.5289 73.7014 45.3642 74.4062 45.0092C75.1332 44.6329 75.506 44.0202 75.5245 43.1711C75.5344 42.7139 75.4339 42.3305 75.2228 42.0209C75.0117 41.7113 74.5928 41.4408 73.9661 41.2093C73.3399 40.9561 72.4087 40.7071 71.1723 40.4623C69.5242 40.1215 68.2259 39.7229 67.2774 39.2666C66.3511 38.789 65.6882 38.2191 65.2887 37.5569C64.9115 36.8734 64.7329 36.0744 64.7528 35.16C64.7864 33.6141 65.38 32.3636 66.5335 31.4084C67.6875 30.4315 69.3096 29.9658 71.3998 30.0113C72.8151 30.0421 73.996 30.3292 74.9427 30.8726C75.9115 31.3948 76.6589 32.0863 77.1847 32.9473C77.4992 33.4291 77.7485 33.9381 77.9327 34.4743C78.1548 35.1209 77.641 35.7424 76.9582 35.7741L76.3541 35.8021C75.7819 35.8286 75.2961 35.4198 75.0601 34.8979C74.9532 34.6614 74.8243 34.4395 74.6735 34.2323C74.3355 33.7457 73.8864 33.3656 73.3259 33.092C72.766 32.7967 72.0941 32.6404 71.3103 32.6234C70.0692 32.5964 69.1496 32.8159 68.5513 33.2822C67.953 33.7484 67.6458 34.3516 67.6296 35.0919C67.6173 35.658 67.7378 36.1289 67.991 36.5048C68.2665 36.8593 68.7064 37.163 69.3108 37.4157C69.9157 37.6467 70.728 37.8605 71.7475 38.0569C73.5045 38.4001 74.8681 38.8001 75.8384 39.2569C76.8087 39.7137 77.4829 40.2621 77.8611 40.902C78.2393 41.542 78.4184 42.3192 78.3985 43.2337C78.3753 44.3005 78.0506 45.2084 77.4243 45.9571C76.8203 46.6846 76.0024 47.2332 74.9706 47.6028C73.9605 47.9729 72.8131 48.144 71.5285 48.116Z" fill="#008FFF"/>
</g>
<path d="M56.209 9.594C56.2211 9.04117 56.0701 8.64434 55.7563 8.40351C55.4425 8.16267 54.9187 8.03427 54.1852 8.0183C53.93 8.01275 53.7062 8.03447 53.5137 8.08346C53.3212 8.13245 53.1597 8.21934 53.0294 8.34414C52.8992 8.45831 52.7947 8.6209 52.7156 8.8319C52.6262 9.03205 52.5514 9.29101 52.4913 9.60879C52.3325 10.552 52.1726 11.543 52.0117 12.5819C51.8405 13.6099 51.6798 14.6381 51.5298 15.6665C51.3694 16.6841 51.22 17.6807 51.0818 18.6562C50.9438 19.6212 50.8231 20.5226 50.7198 21.3606C50.606 22.1878 50.5209 22.9252 50.4642 23.5728C50.3972 24.2095 50.3596 24.7139 50.3515 25.086C50.3432 25.4687 50.3733 25.7938 50.4419 26.0612C50.4999 26.3284 50.6123 26.5435 50.7789 26.7067C50.9349 26.8696 51.145 26.9912 51.4091 27.0714C51.6629 27.1408 51.9811 27.1796 52.3639 27.1879C52.736 27.196 53.0357 27.1068 53.2632 26.9203C53.4799 26.7336 53.5926 26.4435 53.6012 26.0502C53.61 25.6462 53.6536 25.11 53.7319 24.4416C53.8105 23.7626 53.912 23.0096 54.0364 22.1827C54.1607 21.3558 54.3022 20.476 54.4608 19.5435C54.6087 18.6107 54.7671 17.6888 54.9358 16.7777C55.0939 15.8665 55.2512 14.9924 55.4077 14.1555C55.5538 13.3078 55.6871 12.5608 55.8075 11.9146C55.9282 11.2578 56.0249 10.7228 56.0977 10.3095C56.1708 9.88567 56.2079 9.64715 56.209 9.594Z" fill="#5210FA"/>
<path d="M51.2573 4.31903C51.2296 5.5912 52.2585 5.72356 53.5306 5.75125C54.8028 5.77894 56.157 5.08392 56.1847 3.81175C56.2124 2.53959 54.9031 1.17204 53.6309 1.14434C52.3587 1.11665 51.2849 3.04687 51.2573 4.31903Z" fill="#5210FA"/>
</svg>
